<?xml version="1.0" encoding="UTF-8" standalone="no"?>
<!-- Created with Inkscape (http://www.inkscape.org/) -->

<svg
   width="1920"
   height="1920"
   viewBox="0 0 508 508"
   version="1.1"
   id="svg5"
   inkscape:export-filename="C:\Users\patri\Desktop\gsp-logo.png"
   inkscape:export-xdpi="227.215"
   inkscape:export-ydpi="227.215"
   inkscape:version="1.1 (c68e22c387, 2021-05-23)"
   sodipodi:docname="gsp-logo.svg"
   xmlns:inkscape="http://www.inkscape.org/namespaces/inkscape"
   xmlns:sodipodi="http://sodipodi.sourceforge.net/DTD/sodipodi-0.dtd"
   xmlns:xlink="http://www.w3.org/1999/xlink"
   xmlns="http://www.w3.org/2000/svg"
   xmlns:svg="http://www.w3.org/2000/svg">
  <sodipodi:namedview
     id="namedview7"
     pagecolor="#ffffff"
     bordercolor="#000000"
     borderopacity="1"
     inkscape:pageshadow="2"
     inkscape:pageopacity="0.0"
     inkscape:pagecheckerboard="false"
     inkscape:document-units="mm"
     showgrid="false"
     units="px"
     height="1920px"
     inkscape:zoom="0.38890873"
     inkscape:cx="647.96694"
     inkscape:cy="1571.0627"
     inkscape:window-width="2160"
     inkscape:window-height="1334"
     inkscape:window-x="-11"
     inkscape:window-y="-11"
     inkscape:window-maximized="1"
     inkscape:current-layer="layer1"
     showborder="true"
     borderlayer="false"
     inkscape:showpageshadow="true" />
  <defs
     id="defs2">
    <linearGradient
       inkscape:collect="always"
       id="linearGradient12415">
      <stop
         style="stop-color:#008000;stop-opacity:1;"
         offset="0"
         id="stop12411" />
      <stop
         style="stop-color:#008000;stop-opacity:0;"
         offset="1"
         id="stop12413" />
    </linearGradient>
    <linearGradient
       id="linearGradient3081"
       inkscape:swatch="solid">
      <stop
         style="stop-color:#000000;stop-opacity:1;"
         offset="0"
         id="stop3079" />
    </linearGradient>
    <linearGradient
       id="linearGradient2989"
       inkscape:swatch="solid">
      <stop
         style="stop-color:#000000;stop-opacity:1;"
         offset="0"
         id="stop2987" />
    </linearGradient>
    <linearGradient
       id="linearGradient2961"
       inkscape:swatch="solid">
      <stop
         style="stop-color:#b3b3b3;stop-opacity:1;"
         offset="0"
         id="stop2959" />
    </linearGradient>
    <radialGradient
       inkscape:collect="always"
       xlink:href="#linearGradient12415"
       id="radialGradient12421"
       cx="242.45454"
       cy="266.50757"
       fx="242.45454"
       fy="266.50757"
       r="230"
       gradientUnits="userSpaceOnUse"
       gradientTransform="translate(-1.9242424,2.8863636)" />
  </defs>
  <g
     inkscape:label="Livello 1"
     inkscape:groupmode="layer"
     id="layer1">
    <circle
       id="path68"
       cx="240.5303"
       cy="269.39392"
       style="opacity:0.819861;fill:url(#radialGradient12421);fill-opacity:1;stroke-width:0.264583"
       r="230" />
    <path
       style="opacity:0.819861;fill:#000000;fill-opacity:0.899736;stroke:#782121;stroke-width:0.264583;stroke-opacity:0"
       id="path12263"
       d="m 171.73778,230.6393 c -2.73925,-9.17395 -6.89134,-17.9664 -13.32026,-25.16511 -1.89565,-2.12264 -4.1072,-3.94046 -6.1608,-5.9107 -2.54521,-1.55389 -4.96508,-3.33471 -7.63564,-4.66166 -8.37693,-4.16236 -18.32156,-6.29134 -27.67576,-5.30588 -9.50042,1.00086 -12.1217,3.00803 -20.905905,6.87474 -5.85051,3.62956 -11.94381,6.89423 -17.55153,10.88869 -5.51191,3.92621 -12.211002,11.15259 -16.141371,16.65709 -4.256823,5.96169 -7.549293,12.67819 -10.064406,19.53739 -1.227397,3.34734 -2.063898,6.82534 -3.095847,10.23801 -0.648573,3.43228 -1.487914,6.83395 -1.94572,10.29683 -1.252963,9.47758 -1.151892,19.30026 1.647862,28.51648 2.23646,7.36198 3.841766,9.10415 7.766005,15.56286 1.834663,2.1457 3.523859,4.42487 5.50399,6.4371 5.460396,5.54895 12.066867,9.97629 19.247577,12.96851 5.5612,2.31736 7.92567,2.59088 13.7665,3.91698 6.585845,1.09696 13.279215,1.32765 19.833985,-0.14436 6.41623,-1.44087 11.80865,-4.35539 17.55358,-7.38293 7.98795,-4.78485 17.45345,-8.89834 23.39506,-16.53614 2.48501,-3.19443 4.44751,-7.19066 5.75499,-11.00076 0.65832,-1.9184 1.03243,-3.92284 1.54864,-5.88426 0.1745,-1.89601 0.52292,-3.78401 0.52351,-5.68804 0.002,-4.76819 -1.16191,-9.58544 -4.78475,-12.93267 -2.67093,-2.46775 -4.04869,-2.44527 -7.43888,-3.45336 -1.53677,-0.0629 -3.07488,-0.27842 -4.61031,-0.18864 -8.08826,0.47293 -16.06813,4.3682 -23.16254,8.00719 -3.9092,2.27873 -7.8184,4.55747 -11.7276,6.8362 -0.30913,0.25367 -1.04887,0.38002 -0.92739,0.76101 0.19655,0.61645 0.89805,1.15587 1.54478,1.17535 0.84901,0.0256 1.54874,-0.69822 2.31771,-1.059 5.34325,-2.50686 1.28609,-0.74147 7.36434,-3.26027 6.40221,-2.43138 12.99742,-4.29517 19.48188,-6.48523 4.02817,-1.36047 5.86864,-2.06545 9.82987,-3.52058 4.11265,-1.51701 8.1825,-3.14545 12.26588,-4.73839 0.51582,-0.20122 4.2815,-1.68163 5.11627,-1.91766 0.43202,-0.12216 0.88722,-0.13825 1.33083,-0.20737 0.11889,0.10245 0.23778,0.2049 0.35668,0.30734 0,0 9.99951,-6.13598 9.99951,-6.13598 v 0 c -0.35296,-0.36376 -0.70591,-0.72753 -1.05887,-1.09129 -0.56484,0.0476 -1.14524,0.003 -1.69453,0.1427 -0.65854,0.16782 -5.16338,2.0208 -5.4439,2.13473 -4.15646,1.68798 -8.30482,3.39792 -12.50943,4.96417 -3.99337,1.49579 -5.77933,2.19857 -9.83945,3.58099 -6.4082,2.18193 -12.93352,4.00335 -19.31413,6.26836 -4.16919,1.59084 -3.30177,1.1708 -6.98607,2.87737 -0.63896,0.29597 -1.48937,0.348 -1.90256,0.91822 -0.32549,0.44919 -0.21812,1.16851 0.0316,1.66387 0.11064,0.2195 0.38226,-0.30912 0.57338,-0.46368 -2.43997,1.36309 -4.87994,2.72618 -7.31991,4.08928 7.04385,-3.83376 14.80482,-7.81793 22.92857,-8.52663 1.4516,-0.12663 2.91414,0.0225 4.37122,0.0337 3.16358,0.79661 4.5104,0.74425 7.07594,2.89921 3.57275,3.00099 4.72544,7.5 4.74213,11.99739 0.007,1.83441 -0.33606,3.65343 -0.5041,5.48015 -0.52433,1.90822 -0.90078,3.86338 -1.57299,5.72466 -1.38451,3.83355 -3.33951,7.51027 -5.93339,10.67141 -3.13801,3.82427 -5.24755,4.99828 -9.19467,7.91191 -0.82251,0.9738 2.25161,-1.1956 3.37741,-1.7934 -5.57446,3.01498 -11.12572,6.08594 -17.3315,7.6418 -6.50755,1.63147 -13.18178,1.59342 -19.77729,0.57697 -5.752105,-1.24187 -8.183115,-1.52167 -13.688515,-3.69287 -7.16933,-2.82742 -13.79355,-7.02574 -19.267454,-12.47261 -1.9662,-1.95649 -3.635139,-4.19059 -5.45271,-6.28588 -3.926287,-6.33916 -5.478783,-7.96165 -7.730876,-15.21087 -2.808201,-9.03924 -3.030956,-18.69154 -1.807824,-28.01254 0.449506,-3.42549 1.290309,-6.78818 1.935464,-10.18227 2.611064,-8.5396 3.238423,-11.9859 7.409611,-19.98005 3.573912,-6.84946 7.570888,-12.47127 13.001339,-17.98935 2.74699,-2.79131 5.89247,-5.16031 8.82534,-7.75562 0.7982,-0.70632 1.57842,-1.4327 2.36763,-2.14905 8.49674,-3.84119 11.076665,-5.83873 20.305035,-6.90527 9.23394,-1.0672 18.89501,0.92531 27.1858,5.015 2.60523,1.28511 4.95962,3.02605 7.43943,4.53908 2.01981,1.92788 4.21642,3.6861 6.05942,5.78365 6.2093,7.06691 10.40653,16.1733 11.11855,25.5856 0,0 10.58161,-5.3916 10.58161,-5.3916 z" />
    <path
       style="opacity:0.819861;fill:#000000;fill-opacity:0.899736;stroke:#782121;stroke-width:0.264583;stroke-opacity:0"
       id="path12271"
       d="m 280.66634,215.50563 c -0.33409,-0.52523 -0.61542,-1.08801 -1.00224,-1.57571 -4.26755,-5.38018 -10.09566,-8.78765 -16.78162,-10.32576 -2.05589,-0.47296 -4.18018,-0.57206 -6.27028,-0.85809 -5.41399,0.34717 -7.3501,0.0589 -12.48999,2.02763 -5.70737,2.18608 -16.3641,9.94846 -19.05597,12.34342 -3.12332,2.77881 -4.01053,7.88535 -5.07125,11.56607 -0.16355,2.06128 -0.54324,4.11676 -0.49066,6.18384 0.14182,5.57478 1.96429,11.15736 5.75958,15.3263 3.02551,3.32336 4.84293,3.84606 8.74689,5.91133 1.72655,0.59034 3.42844,1.25849 5.17966,1.77103 3.42158,1.00141 7.42372,1.74809 10.91476,2.44914 4.66283,0.93635 9.30113,1.8864 13.92423,3.00314 4.85187,1.36307 8.4796,3.39982 11.42727,7.58598 1.91095,2.71383 2.13511,3.75343 3.40654,6.83154 0.35396,1.34343 0.83037,2.66045 1.06188,4.03031 1.02332,6.05482 -0.13222,12.50262 -3.1605,17.84071 -0.77883,1.37288 -1.79856,2.59434 -2.69783,3.89151 -1.81747,1.82216 -5.17432,5.61328 -7.76515,6.42874 -1.60819,0.50617 5.3009,-1.67989 4.14129,-2.90371 -1.28752,-1.35883 -3.55677,1.19227 -5.38592,1.59016 -4.60361,1.0014 -6.71269,0.83462 -11.40393,0.9586 -7.06241,-0.45091 -14.57878,-1.18016 -20.98118,-4.48858 -3.34214,-1.72703 -3.96981,-2.63942 -6.59933,-5.11002 -0.67233,-0.81486 -1.34465,-1.62972 -2.01698,-2.44457 0,0 -9.52434,5.75166 -9.52434,5.75166 v 0 c 0.75435,0.81061 1.50871,1.62121 2.26307,2.43182 2.77851,2.50633 3.56102,3.51977 7.01907,5.29566 6.57718,3.37771 14.16681,4.12035 21.40569,4.7135 4.77013,-0.0356 6.82131,0.16283 11.52488,-0.71794 8.03051,-1.50375 10.94817,-4.00005 19.39732,-8.96106 1.53541,-0.90153 2.96781,-1.98708 4.30221,-3.1659 1.25645,-1.10997 2.29171,-2.44765 3.43757,-3.67148 0.87122,-1.3539 1.8641,-2.63686 2.61369,-4.06172 2.95687,-5.62059 4.02545,-12.28884 2.97505,-18.55061 -0.23847,-1.42158 -0.71699,-2.79231 -1.07548,-4.18847 -1.29585,-3.2088 -1.53654,-4.31456 -3.48234,-7.16494 -3.05863,-4.48057 -6.7682,-6.73767 -11.95554,-8.10573 -4.73141,-1.02004 -9.47907,-1.91177 -14.23188,-2.82558 -3.70285,-0.71193 -7.17275,-1.33426 -10.80638,-2.36256 -1.7069,-0.48305 -3.37233,-1.10214 -5.0585,-1.65321 -3.7205,-1.89673 -5.54469,-2.41658 -8.45803,-5.50288 -3.69458,-3.91393 -5.5213,-9.22651 -5.62858,-14.55671 -0.0402,-1.99561 0.35803,-3.97595 0.53704,-5.96392 0.63203,-1.96697 1.00537,-4.03677 1.89611,-5.90092 0.88763,-1.85766 3.74362,-3.13448 3.39039,-5.16279 -0.24188,-1.38892 -4.88402,2.09041 -4.13326,0.8971 1.11544,-1.77296 3.56068,-2.24249 5.49115,-3.05544 5.00073,-2.10586 6.92224,-1.86844 12.2338,-2.35206 2.03972,0.24113 4.1126,0.28492 6.11917,0.7234 6.16905,1.34809 12.09442,4.65705 15.35115,10.21552 0.28639,0.48879 0.4168,1.05357 0.62521,1.58035 0,0 10.38249,-5.7181 10.38249,-5.7181 z" />
    <path
       style="opacity:0.819861;fill:#000000;fill-opacity:0.899736;stroke:#782121;stroke-width:0.264583;stroke-opacity:0"
       id="path12281"
       d="m 359.23299,321.19837 c -2.03751,-7.91087 -3.93142,-15.85754 -5.32392,-23.91134 -0.59174,-3.4223 -1.07551,-6.8624 -1.61325,-10.2936 -2.86321,-20.83913 -6.49449,-41.55922 -9.81646,-62.32724 -0.37375,-2.48763 -0.746,-4.97548 -1.12128,-7.46289 -0.2958,-1.96065 -0.61828,-3.91741 -0.89194,-5.88128 -0.20293,-1.4564 -0.63841,-2.91151 -0.53771,-4.37853 0.24768,-3.60779 2.50029,-5.38751 6.23223,-6.1695 0.64067,-0.13425 0.80471,1.03268 1.20706,1.54902 4.05283,-0.76381 8.06058,-1.82659 12.15848,-2.29145 13.81924,-1.56762 29.15406,-0.31153 40.72371,8.18673 1.96914,1.44638 3.5274,3.3816 5.29111,5.07241 1.00677,1.82582 2.3599,3.49983 3.02027,5.47748 1.31922,3.95064 0.80447,8.16452 -0.45868,12.02421 -1.51254,4.62181 -4.55705,9.67466 -7.54192,13.42969 -1.83097,2.3034 -3.99701,4.31928 -5.99554,6.47892 -2.30452,1.91491 -4.52316,3.9382 -6.91361,5.74473 -3.17752,2.40136 -9.72214,6.64054 -13.40493,8.54885 -1.191,0.61714 4.70789,-2.17845 3.36674,-2.20438 -1.57726,-0.0305 -2.83236,1.39569 -4.19632,2.18834 -4.18433,2.43174 -8.29527,4.9877 -12.4429,7.48155 0,0 10.21448,-4.00168 10.21448,-4.00168 v 0 c -2.03298,1.07095 -4.04413,2.18437 -6.09891,3.21285 -1.5036,0.7526 2.97505,-1.56836 4.44486,-2.38495 11.8536,-6.58555 23.94876,-12.88512 33.87818,-22.29417 2.03129,-2.22763 4.23055,-4.31298 6.09388,-6.68291 3.03655,-3.86213 6.30314,-9.24256 7.81302,-14.00151 1.32035,-4.16164 1.72984,-8.50169 0.13856,-12.68082 -0.77745,-2.04182 -2.2841,-3.72516 -3.42617,-5.58774 -5.57408,-4.93779 -6.31211,-6.36186 -13.6506,-9.36725 -10.67805,-4.37306 -22.52662,-4.92996 -33.886,-3.88881 -3.96849,0.36373 -7.87302,1.24112 -11.80955,1.86168 -6.03898,2.61949 -12.22496,4.92328 -18.117,7.85849 -2.02559,1.00909 -4.09808,2.18083 -5.53876,3.92604 -1.58702,1.92249 -0.14732,6.02393 0.24289,7.79301 2.14223,9.71187 0.45323,1.69253 2.75762,12.93494 3.92824,20.60655 7.60016,41.28517 10.14952,62.11262 0.30787,2.56787 1.95837,16.41665 2.36733,19.53089 0.61439,4.67825 1.49506,9.32279 2.06455,14.00593 0.0733,0.60311 0.10739,1.21035 0.1611,1.81553 0,0 10.45986,-5.42386 10.45986,-5.42386 z" />
  </g>
</svg>
